<?xml version="1.0" encoding="UTF-8" standalone="no"?>
<svg
   xmlns:dc="http://purl.org/dc/elements/1.1/"
   xmlns:cc="http://creativecommons.org/ns#"
   xmlns:rdf="http://www.w3.org/1999/02/22-rdf-syntax-ns#"
   xmlns:svg="http://www.w3.org/2000/svg"
   xmlns="http://www.w3.org/2000/svg"
   viewBox="0 0 300 300"
   height="300"
   width="300"
   id="svg10"
   version="1.1">
  <metadata
     id="metadata16">
    <rdf:RDF>
      <cc:Work
         rdf:about="">
        <dc:format>image/svg+xml</dc:format>
        <dc:type
           rdf:resource="http://purl.org/dc/dcmitype/StillImage" />
        <dc:title></dc:title>
      </cc:Work>
    </rdf:RDF>
  </metadata>
  <defs
     id="defs14" />
  <path
     id="path20"
     d="M 37.379864,265.84429 C 28.11907,264.58382 22.967478,254.18919 15.000001,247.10708 16.059231,167.49532 24.745224,74.532469 29.024889,36.088943 35.335605,30.601561 40.280886,35.863987 44.988943,38.08815 107.0803,27.265406 178.90735,34.341688 249.75721,40.039629 c 10.59684,0.95047 20.25931,9.582325 22.09899,19.741871 0.56113,3.098796 0.15226,3.288553 -8.23946,3.824009 C 190.46678,58.457486 118.88488,47.12891 52.918557,62.621406 45.52601,166.37465 45.555296,171.55463 42.531435,236.88778 c 72.842685,3.67557 141.153525,3.70367 206.691885,-5.6696 7.78869,-50.71206 0.10394,-99.72022 13.81699,-143.573008 5.50142,-14.134883 10.85806,-20.27884 16.59674,-16.041399 5.65184,5.939672 5.91755,23.167607 4.89983,32.309197 -6.36405,102.5834 -7.80665,132.55371 -8.04824,137.52578 -24.69503,12.21034 -38.66336,18.06586 -64.90578,23.03222 -66.88515,5.54148 -124.466572,2.05828 -174.202996,1.37332 z M 92.35947,144.17305 c 18.51346,-5.87575 47.67595,-8.55324 68.12603,-8.76681 8.22952,-0.0663 23.2027,1.96881 39.08108,5.3117 13.24497,4.2458 16.00022,4.16819 16.92122,15.2742 -35.57486,4.74392 -111.31734,24.47313 -124.12833,-11.81909 z"
     style="fill:#000000;stroke-width:0.68953174" />
</svg>
