<?xml version="1.0" encoding="UTF-8" standalone="no"?>
<svg
   xmlns:dc="http://purl.org/dc/elements/1.1/"
   xmlns:cc="http://creativecommons.org/ns#"
   xmlns:rdf="http://www.w3.org/1999/02/22-rdf-syntax-ns#"
   xmlns:svg="http://www.w3.org/2000/svg"
   xmlns="http://www.w3.org/2000/svg"
   viewBox="0 0 300 300"
   height="300"
   width="300"
   id="svg50"
   version="1.1">
  <metadata
     id="metadata56">
    <rdf:RDF>
      <cc:Work
         rdf:about="">
        <dc:format>image/svg+xml</dc:format>
        <dc:type
           rdf:resource="http://purl.org/dc/dcmitype/StillImage" />
        <dc:title></dc:title>
      </cc:Work>
    </rdf:RDF>
  </metadata>
  <defs
     id="defs54" />
  <path
     id="path3749"
     d="m 69.110755,284.31718 c -20.581895,-3.70523 -18.099611,-20.79001 -21.965789,-36.319 8.242821,-47.72627 9.590026,-99.5438 8.939246,-144.017 0.895416,-5.124548 -3.033015,-47.277521 -0.772647,-49.12146 33.224501,-1.962168 37.315142,33.953307 43.330311,53.40599 28.513824,-1.08879 70.847794,-1.95943 100.751414,-2.92076 1.35128,-12.018974 7.41882,-33.305482 3.9496,-44.918338 C 180.64406,31.98482 122.61949,40.534467 93.868558,37.374383 87.573515,34.420036 81.317919,28.860733 82.543324,22.475141 123.27843,15.673583 168.89952,9.6548002 202.4248,22.738463 c 15.78914,6.316813 35.28249,15.045276 43.14771,30.171571 3.66658,10.428369 0.70832,19.608946 3.48808,30.513311 C 262.34263,142.14074 238.16795,210.79654 216.50663,258.28986 169.98995,269.001 111.04957,288.93574 69.110755,284.31718 Z M 178.81297,245.18054 c 3.71199,-3.94319 17.05083,-36.37667 17.00016,-42.25717 -30.31196,0.81533 -67.10297,5.68392 -104.416446,15.01313 -0.409468,12.45092 -0.202393,24.52614 4.095476,31.7885 33.30038,0.0814 56.5902,-0.23416 83.32081,-4.54446 z m -43.30372,-71.18406 c 21.89646,-1.66833 43.56588,-4.36335 65.47124,-5.28847 0.7391,-7.50405 0.95817,-19.12087 -0.99017,-26.40542 -17.86384,-4.42455 -54.29719,-3.03241 -103.547978,3.0528 -1.038003,10.0241 -1.312063,24.13845 -1.048867,31.89766 14.672245,-1.46648 28.179435,-2.3658 40.115775,-3.25664 z"
     style="fill:#000000;stroke-width:0.69072902" />
</svg>
