<?xml version="1.0" encoding="UTF-8" standalone="no"?>
<svg
   xmlns:dc="http://purl.org/dc/elements/1.1/"
   xmlns:cc="http://creativecommons.org/ns#"
   xmlns:rdf="http://www.w3.org/1999/02/22-rdf-syntax-ns#"
   xmlns:svg="http://www.w3.org/2000/svg"
   xmlns="http://www.w3.org/2000/svg"
   viewBox="0 0 300 300"
   height="300"
   width="300"
   id="svg909"
   version="1.1">
  <metadata
     id="metadata915">
    <rdf:RDF>
      <cc:Work
         rdf:about="">
        <dc:format>image/svg+xml</dc:format>
        <dc:type
           rdf:resource="http://purl.org/dc/dcmitype/StillImage" />
        <dc:title></dc:title>
      </cc:Work>
    </rdf:RDF>
  </metadata>
  <defs
     id="defs913" />
  <path
     id="path919"
     d="m 8.279677,219.97205 c 5.238738,-35.87537 12.509394,-72.34607 21.765166,-104.70852 4.456971,-15.583632 9.889688,-33.624787 17.524476,-37.315772 2.39656,-1.1586 7.421567,0.01016 7.74509,1.945831 4.31139,-2.252256 11.146895,-3.280269 16.89647,-3.591943 40.019551,-2.169388 72.940631,-3.82498 114.244791,-3.396005 33.2953,0.345797 60.53898,1.604243 87.05688,9.111508 6.34284,1.795669 19.37368,6.644509 18.18144,12.663359 -0.45714,2.30781 -5.18502,4.92814 -7.71823,6.550802 -31.78331,28.34116 -68.52797,44.96554 -103.26503,62.2759 -2.42355,18.86262 -12.14158,36.89417 -26.26154,48.80866 -8.18291,6.90478 -23.42123,11.37156 -30.44308,10.24415 -7.10983,-1.14154 -16.35315,-18.77503 -19.25035,-28.49737 -29.27928,12.354 -64.959317,24.82499 -93.738249,33.06905 -1.710367,0.48995 -3.069889,-5.0178 -2.737834,-7.15965 z m 93.594603,-38.80152 c -0.5083,-9.63109 -0.60668,-18.69815 1.12499,-28.40028 4.35052,-24.37494 13.47195,-43.82679 23.18785,-65.411232 -22.55824,0.26331 -44.606766,1.27156 -61.171431,1.69622 -10.55377,0.27056 -9.1877,-1.8479 -11.23564,-4.80184 C 36.890982,125.6398 26.388312,170.09483 21.875857,211.699 49.462822,203.4454 77.72909,193.63348 101.87428,181.17053 Z m 55.40124,11.10643 c 11.50494,-13.55152 13.2306,-31.62545 13.67291,-46.67381 0.6338,-21.56331 0.33684,-38.30795 -1.11338,-59.370352 l -32.62143,0.65901 c 0,0 -12.80211,36.951822 -14.41378,41.847022 -7.53517,22.88688 -13.69213,52.00859 -2.78031,73.31394 8.70019,17.17517 30.11032,-1.35902 37.25599,-9.77581 z m 116.8724,-95.747162 c -30.35597,-10.46092 -66.13695,-10.63478 -92.89852,-10.65145 1.56708,22.047872 1.47784,40.550402 1.3993,63.175042 30.41284,-13.36403 68.59621,-32.49054 91.49922,-52.523592 z"
     style="fill:#000000;stroke-width:0.72639227" />
</svg>
